<svg width="224" height="52" viewBox="0 0 224 52" fill="none" xmlns="http://www.w3.org/2000/svg">
<path d="M171.867 42.7742H165.54V23.1613H159.699V16.4516H171.867V42.7742ZM171.867 42.7742V49.4839H184.522V42.7742H171.867ZM15.1416 29.871H9.30088V11.2903H26.3363V15.9355H20.9823V22.6452M15.1416 29.871V22.6452H20.9823M15.1416 29.871H20.9823V22.6452M15.1416 29.871V36.5806H8.32743V41.7419H27.3097V22.6452H20.9823M202.044 15.9355V3.03226H209.832V15.9355H215.673V23.1613H209.832V42.2581H222V49.4839H209.832V43.2903H202.044V23.1613H196.204V15.9355H202.044ZM165.053 10.7742H172.354V3.03226H165.053V10.7742ZM115.407 3.03226V50H141.204V43.2903H148.018V23.1613H141.204V15.9355H128.549V23.1613H122.708V3.03226H115.407ZM129.035 29.871V23.6774H140.717V42.2581H122.708V29.871H129.035ZM78.4159 22.6452V30.9032H110.053V22.6452H78.4159ZM46.7788 8.70968H53.5929V2H61.8673V42.2581H74.0354V50H41.4248V42.2581L53.5929 41.7419V17.4839H46.7788V8.70968ZM8.32743 8.70968V2H28.2832V8.70968H35.0973V42.2581H28.2832V50H8.32743V42.2581H2V8.70968H8.32743Z" stroke="#808080" stroke-width="3"/>
</svg>
