<svg width="206" height="243" viewBox="0 0 206 243" fill="none" xmlns="http://www.w3.org/2000/svg">
<path d="M30.0233 105.849C27.2619 105.849 25.0233 108.087 25.0233 110.849V209.85C25.0233 212.612 27.2619 214.85 30.0233 214.85H64.0498L81.2873 237.836C83.3203 240.547 87.4041 240.494 89.3651 237.73L105.602 214.85H124.631H141.604C144.366 214.85 146.604 212.612 146.604 209.85V110.849C146.604 108.087 144.366 105.849 141.604 105.849H30.0233Z" stroke="#7845E6" stroke-width="6"/>
<line x1="28.0233" y1="182.32" x2="143.604" y2="182.32" stroke="#7845E6" stroke-width="6"/>
<path d="M167.814 168.153L167.814 126.016" stroke="#7845E6" stroke-width="6" stroke-linecap="round"/>
<path d="M85.8138 102.606L85.8138 86.9999" stroke="#7845E6" stroke-width="6" stroke-linecap="round"/>
<path d="M3.81375 168.153L3.81376 126.016" stroke="#7845E6" stroke-width="6" stroke-linecap="round"/>
<path d="M118.176 147.084C118.176 150.719 115.227 153.668 111.585 153.668C107.944 153.668 104.995 150.719 104.995 147.084C104.995 143.45 107.944 140.501 111.585 140.501C115.227 140.501 118.176 143.45 118.176 147.084Z" fill="#7845E6" stroke="#7845E6" stroke-width="4"/>
<path d="M66.6328 147.084C66.6328 150.719 63.6837 153.668 60.0423 153.668C56.401 153.668 53.4518 150.719 53.4518 147.084C53.4518 143.45 56.401 140.501 60.0423 140.501C63.6837 140.501 66.6328 143.45 66.6328 147.084Z" fill="#7845E6" stroke="#7845E6" stroke-width="4"/>
<path d="M194.261 45.5209C194.274 50.7454 193.075 55.8992 190.76 60.5626C188.015 66.1508 183.795 70.851 178.574 74.1369C173.352 77.4227 167.335 79.1644 161.195 79.1668C156.061 79.1804 150.996 77.9598 146.413 75.6043L124.239 83.1251L131.63 60.5626C129.316 55.8992 128.116 50.7454 128.129 45.5209C128.132 39.2737 129.843 33.1506 133.073 27.8373C136.302 22.524 140.921 18.2305 146.413 15.4376C150.996 13.0821 156.061 11.8615 161.195 11.8751H163.14C171.248 12.3303 178.907 15.8127 184.649 21.6556C190.391 27.4985 193.813 35.2912 194.261 43.5418V45.5209Z" stroke="#7447E1" stroke-width="6" stroke-linecap="round" stroke-linejoin="round"/>
<path d="M145.133 51.1193C144.491 51.1193 143.944 50.9446 143.492 50.5952C143.04 50.2429 142.695 49.733 142.457 49.0653C142.218 48.3949 142.099 47.5852 142.099 46.6364C142.099 45.6932 142.218 44.8878 142.457 44.2202C142.698 43.5497 143.045 43.0384 143.496 42.6861C143.951 42.331 144.496 42.1534 145.133 42.1534C145.769 42.1534 146.313 42.331 146.765 42.6861C147.219 43.0384 147.566 43.5497 147.805 44.2202C148.046 44.8878 148.167 45.6932 148.167 46.6364C148.167 47.5852 148.048 48.3949 147.809 49.0653C147.57 49.733 147.225 50.2429 146.773 50.5952C146.322 50.9446 145.775 51.1193 145.133 51.1193ZM145.133 50.1818C145.769 50.1818 146.263 49.875 146.616 49.2614C146.968 48.6477 147.144 47.7727 147.144 46.6364C147.144 45.8807 147.063 45.2372 146.901 44.706C146.742 44.1747 146.512 43.7699 146.211 43.4915C145.913 43.2131 145.553 43.0739 145.133 43.0739C144.502 43.0739 144.009 43.3849 143.654 44.0071C143.299 44.6264 143.121 45.5028 143.121 46.6364C143.121 47.392 143.201 48.0341 143.36 48.5625C143.519 49.0909 143.748 49.4929 144.046 49.7685C144.347 50.044 144.71 50.1818 145.133 50.1818ZM152.854 42.2727V51H151.798V43.3807H151.746L149.616 44.7955V43.7216L151.798 42.2727H152.854ZM158.211 51.1193C157.569 51.1193 157.022 50.9446 156.57 50.5952C156.119 50.2429 155.773 49.733 155.535 49.0653C155.296 48.3949 155.177 47.5852 155.177 46.6364C155.177 45.6932 155.296 44.8878 155.535 44.2202C155.776 43.5497 156.123 43.0384 156.575 42.6861C157.029 42.331 157.575 42.1534 158.211 42.1534C158.847 42.1534 159.391 42.331 159.843 42.6861C160.298 43.0384 160.644 43.5497 160.883 44.2202C161.124 44.8878 161.245 45.6932 161.245 46.6364C161.245 47.5852 161.126 48.3949 160.887 49.0653C160.648 49.733 160.303 50.2429 159.852 50.5952C159.4 50.9446 158.853 51.1193 158.211 51.1193ZM158.211 50.1818C158.847 50.1818 159.342 49.875 159.694 49.2614C160.046 48.6477 160.222 47.7727 160.222 46.6364C160.222 45.8807 160.141 45.2372 159.979 44.706C159.82 44.1747 159.59 43.7699 159.289 43.4915C158.991 43.2131 158.631 43.0739 158.211 43.0739C157.58 43.0739 157.087 43.3849 156.732 44.0071C156.377 44.6264 156.2 45.5028 156.2 46.6364C156.2 47.392 156.279 48.0341 156.438 48.5625C156.597 49.0909 156.826 49.4929 157.124 49.7685C157.425 50.044 157.788 50.1818 158.211 50.1818ZM165.933 42.2727V51H164.876V43.3807H164.825L162.694 44.7955V43.7216L164.876 42.2727H165.933ZM171.289 51.1193C170.647 51.1193 170.1 50.9446 169.648 50.5952C169.197 50.2429 168.852 49.733 168.613 49.0653C168.374 48.3949 168.255 47.5852 168.255 46.6364C168.255 45.6932 168.374 44.8878 168.613 44.2202C168.854 43.5497 169.201 43.0384 169.653 42.6861C170.107 42.331 170.653 42.1534 171.289 42.1534C171.925 42.1534 172.469 42.331 172.921 42.6861C173.376 43.0384 173.722 43.5497 173.961 44.2202C174.202 44.8878 174.323 45.6932 174.323 46.6364C174.323 47.5852 174.204 48.3949 173.965 49.0653C173.727 49.733 173.381 50.2429 172.93 50.5952C172.478 50.9446 171.931 51.1193 171.289 51.1193ZM171.289 50.1818C171.925 50.1818 172.42 49.875 172.772 49.2614C173.124 48.6477 173.3 47.7727 173.3 46.6364C173.3 45.8807 173.219 45.2372 173.058 44.706C172.898 44.1747 172.668 43.7699 172.367 43.4915C172.069 43.2131 171.71 43.0739 171.289 43.0739C170.658 43.0739 170.165 43.3849 169.81 44.0071C169.455 44.6264 169.278 45.5028 169.278 46.6364C169.278 47.392 169.357 48.0341 169.516 48.5625C169.675 49.0909 169.904 49.4929 170.202 49.7685C170.504 50.044 170.866 50.1818 171.289 50.1818ZM179.011 42.2727V51H177.954V43.3807H177.903L175.772 44.7955V43.7216L177.954 42.2727H179.011Z" fill="#222222"/>
</svg>
