<svg width="102" height="24" viewBox="0 0 102 24" fill="none" xmlns="http://www.w3.org/2000/svg">
<path d="M78.2124 19.5337H75.3363V10.6188H72.6814V7.56891H78.2124V19.5337ZM78.2124 19.5337V22.5836H83.9646V19.5337H78.2124ZM6.97345 13.6686H4.31858V5.22287H12.0619V7.33431H9.62832V10.3842M6.97345 13.6686V10.3842H9.62832M6.97345 13.6686H9.62832V10.3842M6.97345 13.6686V16.7185H3.87611V19.0645H12.5044V10.3842H9.62832M91.9292 7.33431V1.46921H95.469V7.33431H98.1239V10.6188H95.469V19.2991H101V22.5836H95.469V19.7683H91.9292V10.6188H89.2743V7.33431H91.9292ZM75.115 4.98827H78.4336V1.46921H75.115V4.98827ZM52.5487 1.46921V22.8182H64.2743V19.7683H67.3717V10.6188H64.2743V7.33431H58.5221V10.6188H55.8673V1.46921H52.5487ZM58.7434 13.6686V10.8534H64.0531V19.2991H55.8673V13.6686H58.7434ZM35.7345 10.3842V14.1378H50.115V10.3842H35.7345ZM21.354 4.04985H24.4513V1H28.2124V19.2991H33.7434V22.8182H18.9204V19.2991L24.4513 19.0645V8.03812H21.354V4.04985ZM3.87611 4.04985V1H12.9469V4.04985H16.0442V19.2991H12.9469V22.8182H3.87611V19.2991H1V4.04985H3.87611Z" stroke="#808080"/>
</svg>
