<svg width="171" height="159" viewBox="0 0 171 159" fill="none" xmlns="http://www.w3.org/2000/svg">
<path d="M29.7096 21.8488C26.9482 21.8488 24.7096 24.0873 24.7096 26.8488V125.85C24.7096 128.612 26.9482 130.85 29.7096 130.85H63.7361L80.9736 153.836C83.0066 156.547 87.0904 156.493 89.0514 153.73L105.288 130.85H124.317H141.291C144.052 130.85 146.291 128.612 146.291 125.85V26.8488C146.291 24.0873 144.052 21.8488 141.291 21.8488H29.7096Z" stroke="#7845E6" stroke-width="6"/>
<line x1="27.7096" y1="98.3195" x2="143.291" y2="98.3195" stroke="#7845E6" stroke-width="6"/>
<path d="M167.5 84.1526L167.5 42.0157" stroke="#7845E6" stroke-width="6" stroke-linecap="round"/>
<path d="M85.5 18.6063L85.5 3.00006" stroke="#7845E6" stroke-width="6" stroke-linecap="round"/>
<path d="M3.5 84.1526L3.50001 42.0157" stroke="#7845E6" stroke-width="6" stroke-linecap="round"/>
<path d="M117.862 63.0842C117.862 66.7186 114.913 69.6676 111.271 69.6676C107.63 69.6676 104.681 66.7186 104.681 63.0842C104.681 59.4498 107.63 56.5007 111.271 56.5007C114.913 56.5007 117.862 59.4498 117.862 63.0842Z" fill="#7845E6" stroke="#7845E6" stroke-width="4"/>
<path d="M66.319 63.0842C66.319 66.7186 63.3699 69.6676 59.7285 69.6676C56.0872 69.6676 53.1381 66.7186 53.1381 63.0842C53.1381 59.4498 56.0872 56.5007 59.7285 56.5007C63.3699 56.5007 66.319 59.4498 66.319 63.0842Z" fill="#7845E6" stroke="#7845E6" stroke-width="4"/>
</svg>
