<svg width="19" height="18" viewBox="0 0 19 18" fill="none" xmlns="http://www.w3.org/2000/svg">
<path d="M13.923 3.19556H5.70456C4.32385 3.19556 3.20456 4.31484 3.20456 5.69556V12.593C3.20456 13.9738 4.32385 15.093 5.70456 15.093H6.73962C7.16883 15.093 7.57296 15.2952 7.83033 15.6387L7.87255 15.6951C8.81238 16.9493 10.7016 16.9245 11.6081 15.646C11.854 15.2992 12.2529 15.093 12.678 15.093H13.9172C15.2961 15.093 16.423 13.9756 16.423 12.593V5.69556C16.423 4.31484 15.3037 3.19556 13.923 3.19556Z" stroke="#7845E6"/>
<line x1="3.70456" y1="11.2861" x2="15.923" y2="11.2861" stroke="#7845E6"/>
<path d="M18.4822 9.96997L18.4822 5.51191" stroke="#7845E6" stroke-linecap="round"/>
<path d="M9.81375 3.03516L9.81375 1.38402" stroke="#7845E6" stroke-linecap="round"/>
<path d="M1.14529 9.96997L1.1453 5.51191" stroke="#7845E6" stroke-linecap="round"/>
<circle cx="12.5381" cy="7.74089" r="0.5" fill="#7845E6" stroke="#7845E6" stroke-width="0.816248"/>
<circle cx="7.08937" cy="7.74089" r="0.5" fill="#7845E6" stroke="#7845E6" stroke-width="0.816248"/>
</svg>
