<svg width="171" height="159" viewBox="0 0 171 159" fill="none" xmlns="http://www.w3.org/2000/svg" style="">
<path d="M29.7096 21.8488C26.9482 21.8488 24.7096 24.0873 24.7096 26.8488V125.85C24.7096 128.612 26.9482 130.85 29.7096 130.85H63.7361L80.9736 153.836C83.0066 156.547 87.0904 156.493 89.0514 153.73L105.288 130.85H124.317H141.291C144.052 130.85 146.291 128.612 146.291 125.85V26.8488C146.291 24.0873 144.052 21.8488 141.291 21.8488H29.7096Z" stroke="#7845E6" stroke-width="6" class="oUFbYGbh_0"></path>
<path stroke="#7845E6" stroke-width="6" d="M27.7096,98.3195L143.291,98.3195" class="oUFbYGbh_1"></path>
<path d="M167.5 84.1526L167.5 42.0157" stroke="#7845E6" stroke-width="6" stroke-linecap="round" class="oUFbYGbh_2"></path>
<path d="M85.5 18.6063L85.5 3.00006" stroke="#7845E6" stroke-width="6" stroke-linecap="round" class="oUFbYGbh_3"></path>
<path d="M3.5 84.1526L3.50001 42.0157" stroke="#7845E6" stroke-width="6" stroke-linecap="round" class="oUFbYGbh_4"></path>
<path d="M117.862 63.0842C117.862 66.7186 114.913 69.6676 111.271 69.6676C107.63 69.6676 104.681 66.7186 104.681 63.0842C104.681 59.4498 107.63 56.5007 111.271 56.5007C114.913 56.5007 117.862 59.4498 117.862 63.0842Z" fill="#7845E6" stroke="#7845E6" stroke-width="4" class="oUFbYGbh_5"></path>
<path d="M66.319 63.0842C66.319 66.7186 63.3699 69.6676 59.7285 69.6676C56.0872 69.6676 53.1381 66.7186 53.1381 63.0842C53.1381 59.4498 56.0872 56.5007 59.7285 56.5007C63.3699 56.5007 66.319 59.4498 66.319 63.0842Z" fill="#7845E6" stroke="#7845E6" stroke-width="4" class="oUFbYGbh_6"></path>
<style data-made-with="vivus-instant">.oUFbYGbh_0{stroke-dasharray:478 480;stroke-dashoffset:479;animation:oUFbYGbh_draw 2000ms linear 0ms forwards;}.oUFbYGbh_1{stroke-dasharray:116 118;stroke-dashoffset:117;animation:oUFbYGbh_draw 2000ms linear 166ms forwards;}.oUFbYGbh_2{stroke-dasharray:43 45;stroke-dashoffset:44;animation:oUFbYGbh_draw 2000ms linear 333ms forwards;}.oUFbYGbh_3{stroke-dasharray:16 18;stroke-dashoffset:17;animation:oUFbYGbh_draw 2000ms linear 500ms forwards;}.oUFbYGbh_4{stroke-dasharray:43 45;stroke-dashoffset:44;animation:oUFbYGbh_draw 2000ms linear 666ms forwards;}.oUFbYGbh_5{stroke-dasharray:42 44;stroke-dashoffset:43;animation:oUFbYGbh_draw 2000ms linear 833ms forwards;}.oUFbYGbh_6{stroke-dasharray:42 44;stroke-dashoffset:43;animation:oUFbYGbh_draw 2000ms linear 1000ms forwards;}@keyframes oUFbYGbh_draw{100%{stroke-dashoffset:0;}}@keyframes oUFbYGbh_fade{0%{stroke-opacity:1;}94.44444444444444%{stroke-opacity:1;}100%{stroke-opacity:0;}}</style></svg>
