<svg width="60" height="60" viewBox="0 0 60 60" fill="none" xmlns="http://www.w3.org/2000/svg">
<circle cx="30" cy="30" r="30" fill="#23CC60"/>
<path d="M39.7667 34.1101V36.8601C39.7677 37.1154 39.7154 37.3681 39.6131 37.602C39.5109 37.8359 39.3609 38.0459 39.1727 38.2185C38.9846 38.3911 38.7625 38.5225 38.5207 38.6043C38.2788 38.686 38.0226 38.7164 37.7683 38.6934C34.9476 38.3869 32.2381 37.4231 29.8575 35.8793C27.6427 34.4719 25.7649 32.5941 24.3575 30.3793C22.8083 27.9879 21.8442 25.2652 21.5433 22.4318C21.5204 22.1783 21.5505 21.9228 21.6318 21.6816C21.713 21.4404 21.8436 21.2187 22.0152 21.0308C22.1868 20.8428 22.3957 20.6926 22.6285 20.5898C22.8613 20.4869 23.113 20.4337 23.3675 20.4334H26.1175C26.5624 20.4291 26.9936 20.5866 27.3309 20.8767C27.6682 21.1668 27.8886 21.5696 27.9508 22.0101C28.0669 22.8902 28.2822 23.7543 28.5925 24.5859C28.7158 24.914 28.7425 25.2706 28.6694 25.6134C28.5963 25.9562 28.4265 26.2709 28.18 26.5201L27.0158 27.6843C28.3208 29.9792 30.2209 31.8793 32.5158 33.1843L33.68 32.0201C33.9292 31.7736 34.2439 31.6038 34.5867 31.5307C34.9295 31.4576 35.2861 31.4843 35.6142 31.6076C36.4458 31.9179 37.3099 32.1332 38.19 32.2493C38.6353 32.3121 39.0419 32.5364 39.3327 32.8795C39.6234 33.2226 39.7778 33.6605 39.7667 34.1101Z" fill="white" stroke="white" stroke-width="0.2" stroke-linecap="round" stroke-linejoin="round"/>
<path d="M49.9999 28.8889C50.0076 31.822 49.3223 34.7153 47.9999 37.3334C46.432 40.4706 44.0216 43.1093 41.0387 44.954C38.0558 46.7986 34.6183 47.7764 31.1111 47.7778C28.178 47.7854 25.2847 47.1002 22.6666 45.7778L10 50L14.2222 37.3334C12.8998 34.7153 12.2146 31.822 12.2222 28.8889C12.2236 25.3817 13.2014 21.9442 15.046 18.9613C16.8907 15.9784 19.5294 13.568 22.6666 12.0001C25.2847 10.6777 28.178 9.99242 31.1111 10.0001H32.2222C36.8541 10.2556 41.2289 12.2106 44.5091 15.4909C47.7894 18.7711 49.7444 23.1459 49.9999 27.7778V28.8889Z" stroke="white" stroke-width="2.5" stroke-linecap="round" stroke-linejoin="round"/>
</svg>
